<svg id="Consultoria" xmlns="http://www.w3.org/2000/svg" viewBox="0 0 45 45"><defs><style>.cls-1,.cls-2,.cls-3{fill:none;stroke:#ed1c24;stroke-width:1.32px;}.cls-1,.cls-2{stroke-linecap:square;}.cls-1,.cls-3{stroke-miterlimit:10;}.cls-2{stroke-linejoin:round;}</style></defs><g id="_7" data-name="7"><path class="cls-1" d="M6,12.83c1.12-.37,2.22,2,6.06.85a2.62,2.62,0,0,0-1.44-3.77,5.47,5.47,0,0,0-6.2.85,3.12,3.12,0,0,0-.19,2.7,3.74,3.74,0,0,1,.12.45l0,.15a2.21,2.21,0,0,1,0,.51c.1,2.91,1.72,5.59,3.71,5.59s3.71-2.84,3.71-5.85"/><path class="cls-1" d="M12,22.65a4,4,0,0,1,2.69,1l.21.2"/><path class="cls-1" d="M4.69,22.65a4,4,0,0,0-4,4v5.51H8.32"/><line class="cls-1" x1="10.4" y1="20.16" x2="10.82" y2="22.36"/><line class="cls-1" x1="5.82" y1="22.34" x2="6.21" y2="19.81"/><path class="cls-1" d="M5.23,22.65l1.28,1.84a2.16,2.16,0,0,0,1.76.92h0a2.15,2.15,0,0,0,1.78-.94l1.25-1.82"/><path class="cls-1" d="M38.81,12.83c-1.12-.37-2.22,2-6.06.85a2.62,2.62,0,0,1,1.44-3.77c2.66-1.26,5.36-.21,6.2.85a3.12,3.12,0,0,1,.19,2.7,3.74,3.74,0,0,0-.12.45l0,.15a2.94,2.94,0,0,0,0,.51c-.09,2.91-1.72,5.59-3.71,5.59S33,17.32,33,14.31"/><path class="cls-1" d="M40.31,22.65a4,4,0,0,1,4,4v5.51"/><path class="cls-1" d="M30.16,23.87a4,4,0,0,1,2.89-1.22"/><line class="cls-1" x1="44.34" y1="32.19" x2="36.68" y2="32.19"/><line class="cls-1" x1="38.76" y1="20.16" x2="39.19" y2="22.36"/><line class="cls-1" x1="34.18" y1="22.34" x2="34.57" y2="19.81"/><path class="cls-1" d="M33.59,22.65l1.28,1.84a2.18,2.18,0,0,0,1.77.92h0a2.13,2.13,0,0,0,1.77-.94l1.25-1.82"/><path class="cls-1" d="M25.38,11c-1.52-.5-3,2.65-8.19,1.15,0,0-1.86-3.28,1.95-5.08,3.59-1.7,7.23-.29,8.37,1.14,1,1.23.39,3.24.21,3.77a1.25,1.25,0,0,0-.08.32l-.11.57a2.46,2.46,0,0,0,0,.26c-.05,4-2.27,7.76-5,7.76s-5-3.83-5-7.89"/><path class="cls-1" d="M34.17,38.76H10.83V30.35A6.14,6.14,0,0,1,17,24.21H28a6.13,6.13,0,0,1,6.13,6.14v5.72"/><polyline class="cls-2" points="23.58 26.6 24.13 24.21 20.88 24.21 21.34 26.6"/><polygon class="cls-3" points="24.76 32.37 23.68 26.8 21.33 26.8 20.24 32.37 22.5 34.27 24.76 32.37"/><line class="cls-1" x1="25.55" y1="22.11" x2="25.88" y2="23.82"/><line class="cls-1" x1="19.12" y1="23.8" x2="19.65" y2="20.38"/></g></svg>