<svg id="Consultoria" xmlns="http://www.w3.org/2000/svg" viewBox="0 0 20 20"><defs><style>.cls-1,.cls-2,.cls-3{fill:none;stroke:#ed1c24;stroke-width:0.58px;}.cls-1,.cls-2{stroke-linecap:square;}.cls-1,.cls-3{stroke-miterlimit:10;}.cls-2{stroke-linejoin:round;}</style></defs><g id="_7" data-name="7"><path class="cls-1" d="M2.77,5.67c.49-.16,1,.87,2.68.38a1.15,1.15,0,0,0-.64-1.66,2.41,2.41,0,0,0-2.74.37A1.37,1.37,0,0,0,2,6c0,.07,0,.14.05.2v.07a1.64,1.64,0,0,1,0,.22c0,1.29.76,2.48,1.64,2.48S5.35,7.66,5.35,6.33"/><path class="cls-1" d="M5.38,10a1.73,1.73,0,0,1,.85.22,1.16,1.16,0,0,1,.34.24l.09.08"/><path class="cls-1" d="M2.17,10A1.78,1.78,0,0,0,.39,11.8v2.44H3.78"/><line class="cls-1" x1="4.7" y1="8.92" x2="4.88" y2="9.89"/><line class="cls-1" x1="2.67" y1="9.88" x2="2.84" y2="8.76"/><path class="cls-1" d="M2.41,10l.57.81a.92.92,0,0,0,.78.41h0a1,1,0,0,0,.78-.42l.55-.8"/><path class="cls-1" d="M17.26,5.67c-.49-.16-1,.87-2.68.38a1.15,1.15,0,0,1,.64-1.66A2.41,2.41,0,0,1,18,4.76,1.37,1.37,0,0,1,18,6c0,.07,0,.14-.05.2v.07a1.64,1.64,0,0,0,0,.22c0,1.29-.76,2.48-1.64,2.48s-1.64-1.26-1.64-2.59"/><path class="cls-1" d="M17.93,10a1.78,1.78,0,0,1,1.78,1.78v2.44"/><path class="cls-1" d="M13.44,10.56A1.77,1.77,0,0,1,14.71,10"/><line class="cls-1" x1="19.71" y1="14.24" x2="16.32" y2="14.24"/><line class="cls-1" x1="17.24" y1="8.92" x2="17.43" y2="9.89"/><line class="cls-1" x1="15.21" y1="9.88" x2="15.39" y2="8.76"/><path class="cls-1" d="M15,10l.57.81a1,1,0,0,0,.78.41h0a.94.94,0,0,0,.78-.42l.56-.8"/><path class="cls-1" d="M11.32,4.84C10.65,4.62,10,6,7.7,5.35A1.57,1.57,0,0,1,8.56,3.1a3.27,3.27,0,0,1,3.7.51,1.92,1.92,0,0,1,.1,1.67.57.57,0,0,0,0,.14l-.05.25s0,.08,0,.12c0,1.77-1,3.43-2.21,3.43S7.83,7.52,7.83,5.73"/><path class="cls-1" d="M15.21,17.14H4.89V13.42A2.71,2.71,0,0,1,7.6,10.71h4.9a2.71,2.71,0,0,1,2.71,2.71V16"/><polyline class="cls-2" points="10.53 11.77 10.77 10.71 9.33 10.71 9.53 11.77"/><polygon class="cls-3" points="11.05 14.32 10.57 11.86 9.53 11.86 9.05 14.32 10.05 15.16 11.05 14.32"/><line class="cls-1" x1="11.4" y1="9.78" x2="11.54" y2="10.54"/><line class="cls-1" x1="8.55" y1="10.53" x2="8.79" y2="9.01"/></g></svg>