<svg id="Capa_1" data-name="Capa 1" xmlns="http://www.w3.org/2000/svg" viewBox="0 0 45 45"><defs><style>.cls-1{fill:none;stroke:#ed1c24;stroke-linecap:square;stroke-miterlimit:10;stroke-width:1.48px;}</style></defs><g id="_9" data-name="9"><polyline class="cls-1" points="27.87 18.43 26.17 20.13 23.81 22.49 21.45 24.85 16.73 20.13 14.37 22.49 19.09 27.21 21.45 29.57 23.81 27.21 26.17 24.85 28.53 22.49 30.89 20.13 32.27 18.76 29.9 16.4"/><path class="cls-1" d="M35,5a18.91,18.91,0,0,1-8.13-1.8A16,16,0,0,1,23.32,1a16.25,16.25,0,0,1-3.53,2.21A18.88,18.88,0,0,1,11.66,5H6.1V25.86a13.52,13.52,0,0,0,4.11,9.72c3.86,3.74,13.11,8.58,13.11,8.58s9.24-4.84,13.1-8.58a13.52,13.52,0,0,0,4.11-9.72V5Z"/><path class="cls-1" d="M36,12.36v13.5a9.07,9.07,0,0,1-2.74,6.49c-2.42,2.34-7.94,5.55-10,6.69-2-1.15-7.57-4.35-10-6.69a9.07,9.07,0,0,1-2.74-6.49V9.47h1.06A23.49,23.49,0,0,0,21.72,7.24c.55-.26,1.09-.54,1.6-.83.51.29,1.05.57,1.6.84A23.59,23.59,0,0,0,35,9.47H36"/></g></svg>