<svg id="Proteccionespecializada" xmlns="http://www.w3.org/2000/svg" viewBox="0 0 20 20"><defs><style>.cls-1{fill:none;stroke:#ed1c24;stroke-linecap:square;stroke-miterlimit:10;stroke-width:0.65px;}</style></defs><g id="_9" data-name="9"><polyline class="cls-1" points="12.42 8.15 11.67 8.9 10.63 9.95 9.58 10.99 7.49 8.9 6.45 9.95 8.54 12.04 9.58 13.08 10.63 12.04 11.67 10.99 12.72 9.95 13.76 8.9 14.37 8.3 13.32 7.25"/><path class="cls-1" d="M15.56,2.2A8.39,8.39,0,0,1,12,1.41a7.29,7.29,0,0,1-1.56-1,7.82,7.82,0,0,1-1.56,1,8.43,8.43,0,0,1-3.6.79H2.8v9.24a6,6,0,0,0,1.81,4.3,34,34,0,0,0,5.8,3.8,33.62,33.62,0,0,0,5.79-3.8A6,6,0,0,0,18,11.44V2.2Z"/><path class="cls-1" d="M16,5.47v6a4,4,0,0,1-1.21,2.87,27.19,27.19,0,0,1-4.41,3,27.91,27.91,0,0,1-4.42-3,4,4,0,0,1-1.21-2.87V4.19h.47a10.31,10.31,0,0,0,4.45-1,7.86,7.86,0,0,0,.71-.36c.22.13.46.25.71.37a10.44,10.44,0,0,0,4.44,1H16"/></g></svg>