<svg id="ProtecciónVIP" xmlns="http://www.w3.org/2000/svg" viewBox="0 0 20 20"><defs><style>.cls-1,.cls-2,.cls-3{fill:none;stroke:#ed1c24;stroke-width:0.67px;}.cls-1,.cls-2{stroke-linecap:square;}.cls-1,.cls-3{stroke-miterlimit:10;}.cls-2{stroke-linejoin:round;}</style></defs><g id="_14" data-name="14"><path class="cls-1" d="M13,4.3C13,6.7,11.68,9,10.05,9s-3-2.27-3-4.67"/><path class="cls-1" d="M13.1,3.78s.59-1.46-.09-2.31A4.39,4.39,0,0,0,8.06.79a2.09,2.09,0,0,0-1.15,3c3.06.89,3.94-1,4.84-.68"/><path class="cls-1" d="M6.09,11.22,8.8,15.07a1.52,1.52,0,0,0,2.49,0l2-2.89"/><path class="cls-1" d="M17,19.57H3.14v-5A3.64,3.64,0,0,1,6.77,11h6.55A3.63,3.63,0,0,1,17,14.59v3.64"/><polyline class="cls-2" points="10.6 12.18 10.87 10.96 9.22 10.96 9.46 12.18"/><polyline class="cls-3" points="11.2 15.11 10.64 12.28 9.45 12.28 8.9 15.11"/><line class="cls-1" x1="11.85" y1="9.72" x2="12.05" y2="10.74"/><line class="cls-1" x1="8.05" y1="10.72" x2="8.36" y2="8.7"/><rect class="cls-1" x="13.16" y="15.27" width="2.38" height="1.19"/></g></svg>