<svg id="ProtecciónVIP" xmlns="http://www.w3.org/2000/svg" viewBox="0 0 45 45"><defs><style>.cls-1,.cls-2,.cls-3{fill:none;stroke:#ed1c24;stroke-width:1.51px;}.cls-1,.cls-2{stroke-linecap:square;}.cls-1,.cls-3{stroke-miterlimit:10;}.cls-2{stroke-linejoin:round;}</style></defs><g id="_14" data-name="14"><path class="cls-1" d="M29.2,9.73c0,5.43-3,10.55-6.7,10.55s-6.7-5.12-6.7-10.55"/><path class="cls-1" d="M29.41,8.55s1.31-3.31-.21-5.22S22.8-.48,18,1.8c-5.09,2.41-2.6,6.79-2.6,6.79,6.93,2,8.92-2.2,11-1.53"/><path class="cls-1" d="M13.55,25.36l6.14,8.71a3.45,3.45,0,0,0,5.63,0l4.6-6.54"/><path class="cls-1" d="M38.11,44.24H6.89V33a8.22,8.22,0,0,1,8.21-8.21H29.9A8.22,8.22,0,0,1,38.11,33v8.23"/><polyline class="cls-2" points="23.74 27.53 24.36 24.79 20.64 24.79 21.17 27.53"/><polyline class="cls-3" points="25.09 34.15 23.85 27.76 21.15 27.76 19.91 34.15"/><line class="cls-1" x1="26.58" y1="21.98" x2="27.02" y2="24.27"/><line class="cls-1" x1="17.98" y1="24.23" x2="18.69" y2="19.66"/><rect class="cls-1" x="29.54" y="34.51" width="5.38" height="2.69"/></g></svg>