<svg id="Respuestaaalertasdeemergencia" xmlns="http://www.w3.org/2000/svg" viewBox="0 0 20 20"><defs><style>.cls-1,.cls-2{fill:none;stroke:#ed1c24;stroke-miterlimit:10;stroke-width:0.76px;}.cls-2{stroke-linecap:square;}</style></defs><g id="_17" data-name="17"><polygon class="cls-1" points="17.67 19.52 2.43 19.52 2.43 17.61 3.91 14.8 16.18 14.8 17.67 17.61 17.67 19.52"/><path class="cls-1" d="M4.91,14.8V7.93A4.67,4.67,0,0,1,9.58,3.25h.93a4.67,4.67,0,0,1,4.67,4.68v5.65"/><line class="cls-2" x1="10.05" y1="0.68" x2="10.05" y2="0.38"/><line class="cls-2" x1="5.7" y1="2.09" x2="5.53" y2="1.85"/><line class="cls-2" x1="3.02" y1="5.79" x2="2.73" y2="5.69"/><line class="cls-2" x1="17.67" y1="10.4" x2="17.37" y2="10.4"/><line class="cls-2" x1="2.43" y1="10.4" x2="2.73" y2="10.4"/><line class="cls-2" x1="17.36" y1="5.69" x2="17.08" y2="5.79"/><line class="cls-2" x1="14.57" y1="1.85" x2="14.39" y2="2.09"/><line class="cls-2" x1="10.05" y1="13.23" x2="10.05" y2="10.41"/><circle class="cls-2" cx="10.05" cy="9.53" r="0.89"/><line class="cls-1" x1="2.43" y1="17.61" x2="16.13" y2="17.61"/></g></svg>