<svg id="Respuestaaalertasdeemergencia" xmlns="http://www.w3.org/2000/svg" viewBox="0 0 45 45"><defs><style>.cls-1,.cls-2{fill:none;stroke:#ed1c24;stroke-miterlimit:10;stroke-width:1.72px;}.cls-2{stroke-linecap:square;}</style></defs><g id="_17" data-name="17"><polygon class="cls-1" points="39.72 44.14 5.28 44.14 5.28 39.8 8.62 33.45 36.38 33.45 39.72 39.8 39.72 44.14"/><path class="cls-1" d="M10.89,33.46V17.92A10.56,10.56,0,0,1,21.45,7.35h2.1A10.56,10.56,0,0,1,34.11,17.92V30.7"/><line class="cls-2" x1="22.5" y1="1.53" x2="22.5" y2="0.86"/><line class="cls-2" x1="12.68" y1="4.72" x2="12.28" y2="4.18"/><line class="cls-2" x1="6.6" y1="13.08" x2="5.97" y2="12.87"/><line class="cls-2" x1="39.72" y1="23.5" x2="39.05" y2="23.51"/><line class="cls-2" x1="5.28" y1="23.5" x2="5.95" y2="23.51"/><line class="cls-2" x1="39.03" y1="12.87" x2="38.4" y2="13.08"/><line class="cls-2" x1="32.72" y1="4.18" x2="32.32" y2="4.72"/><line class="cls-2" x1="22.5" y1="29.9" x2="22.5" y2="23.54"/><circle class="cls-2" cx="22.5" cy="21.53" r="2"/><line class="cls-1" x1="5.28" y1="39.8" x2="36.25" y2="39.8"/></g></svg>