<svg id="Capa_1" data-name="Capa 1" xmlns="http://www.w3.org/2000/svg" viewBox="0 0 67.97 67.97"><path d="M53.86,38.2a.63.63,0,0,0,.63-.62V30.12c0-2.62-3.86-4.51-9.09-5.59V23.31a28.17,28.17,0,0,1,4.05,1.18.57.57,0,0,0,.57-.06.61.61,0,0,0,.28-.51V21.43a.63.63,0,0,0-1.25,0V23a29.9,29.9,0,0,0-3.65-1v-3.7a27.79,27.79,0,0,1,4.05,1.18.62.62,0,1,0,.45-1.15,37.75,37.75,0,0,0-10-2.11.62.62,0,0,0-.68.62v5a.62.62,0,0,0,.56.62c1.54.14,3,.34,4.34.59v1.23a61.33,61.33,0,0,0-20.35,0V23.06c1.35-.25,2.8-.45,4.34-.59a.62.62,0,0,0,.56-.62v-5a.62.62,0,0,0-.68-.62,37.75,37.75,0,0,0-10,2.11.62.62,0,0,0-.4.58v5a.63.63,0,0,0,.27.51.66.66,0,0,0,.35.11.85.85,0,0,0,.23,0,26.55,26.55,0,0,1,4.05-1.19v1.22c-5.24,1.08-9.08,3-9.08,5.59,0,4.34,10.56,6.68,20.5,6.68a63.18,63.18,0,0,0,7.54-.44.63.63,0,0,0,.54-.7.62.62,0,0,0-.69-.54,60.65,60.65,0,0,1-7.39.44,57.5,57.5,0,0,1-9.46-.74c.59-.63,2.35-1.42,5.49-1.83a.62.62,0,0,0,.54-.69s0-.06,0-.08L28.86,24.9c1.61-.14,3.32-.22,5.13-.22a47.47,47.47,0,0,1,14.52,2l-6.09,6.14a16.48,16.48,0,0,0-3.64-.93L39.89,27a.61.61,0,0,0-.46-.74.62.62,0,0,0-.75.46l-1.13,4.93A34.61,34.61,0,0,0,34,31.5l-1.16,0a.61.61,0,0,0-.6.64.62.62,0,0,0,.64.6l1.12,0c5.9,0,9.68,1.5,9.68,2.52,0,0,0,.12,0,.15a.64.64,0,0,0,.73.51c4.23-.79,7.26-2,8.83-3.41v2.58c0,2.57-7.91,5.44-19.25,5.44s-19.26-2.87-19.26-5.44v-.83a.62.62,0,0,0-.62-.62.62.62,0,0,0-.62.62V45c0,4.34,10.56,6.68,20.5,6.68a49.52,49.52,0,0,0,14.64-1.93A.61.61,0,0,0,49,49a.62.62,0,0,0-.78-.4,29,29,0,0,1-3.34.85v-3.7c4-.78,6.82-1.92,8.33-3.29V45c0,.83-.86,1.73-2.42,2.53a.62.62,0,0,0-.26.84.61.61,0,0,0,.55.33.58.58,0,0,0,.28-.07c2-1,3.1-2.27,3.1-3.63v-5a.63.63,0,0,0-1.25,0c0,1.39-2.59,3.26-8.33,4.43V40.78c3.67-.71,6.72-1.81,8.33-3.27v.07A.62.62,0,0,0,53.86,38.2Zm-30-20.11c1.15-.21,2.37-.39,3.66-.53v3.73q-1.92.2-3.66.51ZM18.92,23V19.37a27.8,27.8,0,0,1,3.65-1V22A29.9,29.9,0,0,0,18.92,23Zm10.27,8.82c-3.27.51-5.39,1.49-6,2.73-5.27-1.06-8.49-2.82-8.49-4.46,0-1,1.25-2.08,3.45-3l4.57,4.6a.59.59,0,0,0,.44.19.62.62,0,0,0,.44-1.06l-4.17-4.21A39.24,39.24,0,0,1,27.61,25Zm15-10q-1.74-.32-3.66-.51V17.56c1.29.14,2.51.32,3.66.53Zm.6,12.78a3,3,0,0,0-1.17-1.2l6.2-6.25c2.2.91,3.45,2,3.45,3C53.24,31.82,49.93,33.55,44.76,34.58ZM34,50.47c-1.35,0-2.65,0-3.89-.12V45a67.14,67.14,0,0,0,7.77,0v5.38C36.6,50.43,35.3,50.47,34,50.47Zm9.68-.78c-1.44.24-3,.43-4.56.57V44.31a.63.63,0,0,0-.2-.46.64.64,0,0,0-.47-.16,66.38,66.38,0,0,1-8.92,0,.62.62,0,0,0-.66.62v5.95c-8.53-.7-14.13-3.06-14.13-5.23V42.44a14.42,14.42,0,0,0,5.9,2.75.45.45,0,0,0,.16,0,.64.64,0,0,0,.6-.46A.62.62,0,0,0,21,44c-3.84-1-6.22-2.55-6.22-3.94V37.51c1.61,1.46,4.66,2.56,8.33,3.27v6.95a.62.62,0,0,0,.62.62.62.62,0,0,0,.62-.62V41a60.69,60.69,0,0,0,9.69.76A60.65,60.65,0,0,0,43.67,41Z" style="fill:#ed1c24"/></svg>