<svg id="SeguridadparaEventos" xmlns="http://www.w3.org/2000/svg" viewBox="0 0 45 45"><defs><style>.cls-1,.cls-2,.cls-3{fill:none;stroke:#ed1c24;stroke-width:1.46px;}.cls-1,.cls-2{stroke-linecap:square;}.cls-1,.cls-3{stroke-miterlimit:10;}.cls-2{stroke-linejoin:round;}</style></defs><g id="_17" data-name="17"><path class="cls-1" d="M28.38,10.81C28.38,16.07,25.75,21,22.5,21c-2.84,0-5.21-3.8-5.76-8.28-.08-.64-.35-3.94,4.36-4.81a16.94,16.94,0,0,0,4.35-1.59s2.92,1,2.92,3.45Z"/><path class="cls-1" d="M13.82,26l5.95,8.44a3.34,3.34,0,0,0,5.46,0l4.46-6.33"/><path class="cls-1" d="M37.63,44.27H7.37V33.36a8,8,0,0,1,8-8H29.67a8,8,0,0,1,8,8v8"/><polyline class="cls-2" points="23.7 28.07 24.31 25.4 20.69 25.4 21.21 28.07"/><polyline class="cls-3" points="25.02 34.48 23.81 28.29 21.2 28.29 19.99 34.48"/><line class="cls-1" x1="26.46" y1="22.68" x2="26.88" y2="24.91"/><line class="cls-1" x1="18.12" y1="24.87" x2="18.9" y2="19.82"/><rect class="cls-1" x="29.33" y="34.84" width="5.22" height="2.6"/><path class="cls-1" d="M16.3,20.09c-1,.2-.5.12-1.38.29a2.69,2.69,0,0,1-3.05-3.61,30,30,0,0,0,1.57-7.93,8.91,8.91,0,0,1,17.76.27,22.31,22.31,0,0,0,1.52,7.51,2.69,2.69,0,0,1-3,3.72c-.7-.15-.47-.13-1.31-.29"/></g></svg>