<svg id="SeguridadparaEventos" xmlns="http://www.w3.org/2000/svg" viewBox="0 0 20 20"><defs><style>.cls-1,.cls-2,.cls-3{fill:none;stroke:#ed1c24;stroke-width:0.65px;}.cls-1,.cls-2{stroke-linecap:square;}.cls-1,.cls-3{stroke-miterlimit:10;}.cls-2{stroke-linejoin:round;}</style></defs><g id="_17" data-name="17"><path class="cls-1" d="M12.65,4.78c0,2.33-1.17,4.53-2.6,4.53-1.26,0-2.31-1.69-2.55-3.67,0-.28-.15-1.74,1.93-2.12a7.32,7.32,0,0,0,1.92-.71s1.29.44,1.29,1.53Z"/><path class="cls-1" d="M6.21,11.48l2.63,3.74a1.49,1.49,0,0,0,2.42,0l2-2.8"/><path class="cls-1" d="M16.74,19.58H3.35V14.76a3.52,3.52,0,0,1,3.52-3.52h6.35a3.52,3.52,0,0,1,3.52,3.52v3.53"/><polyline class="cls-2" points="10.58 12.41 10.85 11.24 9.25 11.24 9.48 12.41"/><polyline class="cls-3" points="11.16 15.25 10.63 12.51 9.47 12.51 8.94 15.25"/><line class="cls-1" x1="11.8" y1="10.03" x2="11.99" y2="11.02"/><line class="cls-1" x1="8.11" y1="11" x2="8.46" y2="8.77"/><rect class="cls-1" x="13.07" y="15.41" width="2.31" height="1.15"/><path class="cls-1" d="M7.31,8.88c-.46.1-.22.06-.62.14a1.19,1.19,0,0,1-1.34-1.6A13.63,13.63,0,0,0,6,3.91,3.94,3.94,0,0,1,13.9,4a9.67,9.67,0,0,0,.67,3.32A1.2,1.2,0,0,1,13.23,9c-.31-.07-.21-.06-.58-.13"/></g></svg>