<svg id="Videovigilancia" xmlns="http://www.w3.org/2000/svg" viewBox="0 0 45 45"><defs><style>.cls-1,.cls-2{fill:none;stroke:#ed1c24;stroke-miterlimit:10;stroke-width:1.4px;}.cls-1{stroke-linecap:square;}</style></defs><g id="_15" data-name="15"><path class="cls-1" d="M37,12.17l2.39,5.67a4,4,0,0,1-2.14,5.28L10,34.63l-3.76-8.9"/><path class="cls-1" d="M35.83,17.65,14.16,26.81,2.23,24.74.92,21.62l30.3-12.8A4,4,0,0,1,36.5,11l2.3,5.44"/><line class="cls-2" x1="4.7" y1="28.61" x2="6.69" y2="33.33"/><polyline class="cls-2" points="28.29 32.71 26.32 28.02 29.96 26.48 31.03 29.01"/><polyline class="cls-2" points="40.74 27.37 40.74 27.37 31.92 31.09"/><line class="cls-2" x1="38.8" y1="32.48" x2="33.48" y2="34.73"/><path class="cls-1" d="M33.46,32.6a2.81,2.81,0,1,1-3.67-1.49A2.8,2.8,0,0,1,33.46,32.6Z"/><rect class="cls-1" x="40.74" y="24.82" width="3.56" height="10.52"/></g></svg>