<svg id="Videovigilancia" xmlns="http://www.w3.org/2000/svg" viewBox="0 0 20 20"><defs><style>.cls-1,.cls-2{fill:none;stroke:#ed1c24;stroke-miterlimit:10;stroke-width:0.62px;}.cls-1{stroke-linecap:square;}</style></defs><g id="_15" data-name="15"><path class="cls-1" d="M16.47,5.38l1.06,2.51a1.79,1.79,0,0,1-1,2.34l-12,5.09L2.87,11.38"/><path class="cls-1" d="M15.94,7.81,6.36,11.86l-5.28-.92L.5,9.56,13.91,3.9a1.78,1.78,0,0,1,2.33.95l1,2.4"/><line class="cls-2" x1="2.17" y1="12.65" x2="3.06" y2="14.74"/><polyline class="cls-2" points="12.61 14.47 11.73 12.4 13.35 11.71 13.82 12.83"/><polyline class="cls-2" points="18.12 12.11 18.11 12.11 14.22 13.75"/><line class="cls-2" x1="17.26" y1="14.37" x2="14.91" y2="15.36"/><path class="cls-1" d="M14.9,14.42a1.24,1.24,0,1,1-1.63-.66A1.25,1.25,0,0,1,14.9,14.42Z"/><rect class="cls-1" x="18.11" y="10.98" width="1.58" height="4.65"/></g></svg>